<svg width="512" height="512" viewBox="0 0 512 512" fill="none" xmlns="http://www.w3.org/2000/svg">
  <defs>
    <linearGradient id="bg" x1="96" y1="64" x2="430" y2="454" gradientUnits="userSpaceOnUse">
      <stop stop-color="#5B5CF6"/>
      <stop offset="0.58" stop-color="#2563EB"/>
      <stop offset="1" stop-color="#0F766E"/>
    </linearGradient>
    <linearGradient id="sheet" x1="166" y1="104" x2="348" y2="396" gradientUnits="userSpaceOnUse">
      <stop stop-color="#FFFFFF"/>
      <stop offset="1" stop-color="#EEF4FF"/>
    </linearGradient>
    <filter id="shadow" x="58" y="64" width="396" height="392" filterUnits="userSpaceOnUse" color-interpolation-filters="sRGB">
      <feDropShadow dx="0" dy="18" stdDeviation="18" flood-color="#111827" flood-opacity="0.22"/>
    </filter>
  </defs>
  <rect x="34" y="34" width="444" height="444" rx="104" fill="url(#bg)"/>
  <path d="M117 140C102.641 152.979 92 178.104 92 208C92 253.84 117.072 291 148 291C161.322 291 173.557 284.111 183.169 272.614" stroke="white" stroke-opacity="0.28" stroke-width="18" stroke-linecap="round"/>
  <g filter="url(#shadow)">
    <path d="M142 143C142 121.461 159.461 104 181 104H320L370 154V365C370 386.539 352.539 404 331 404H181C159.461 404 142 386.539 142 365V143Z" fill="url(#sheet)"/>
    <path d="M320 104V145C320 150.523 324.477 155 330 155H370L320 104Z" fill="#DCE8FF"/>
    <path d="M184 174H260" stroke="#94A3B8" stroke-width="16" stroke-linecap="round"/>
    <path d="M184 210H286" stroke="#CBD5E1" stroke-width="14" stroke-linecap="round"/>
    <path d="M184 246H239" stroke="#CBD5E1" stroke-width="14" stroke-linecap="round"/>
    <path d="M171 236L240 323L344 177" stroke="#111827" stroke-width="42" stroke-linecap="round" stroke-linejoin="round"/>
    <path d="M171 236L240 323L344 177" stroke="white" stroke-opacity="0.16" stroke-width="16" stroke-linecap="round" stroke-linejoin="round"/>
  </g>
</svg>
